<?xml version="1.0" encoding="utf-8"?>
<!-- Generator: Adobe Illustrator 18.0.0, SVG Export Plug-In . SVG Version: 6.00 Build 0)  -->
<!DOCTYPE svg PUBLIC "-//W3C//DTD SVG 1.1//EN" "http://www.w3.org/Graphics/SVG/1.1/DTD/svg11.dtd">
<svg version="1.1" id="Layer_1" xmlns="http://www.w3.org/2000/svg" xmlns:xlink="http://www.w3.org/1999/xlink" x="0px" y="0px"
	 viewBox="0 0 10 10" enable-background="new 0 0 10 10" xml:space="preserve">
<g>
	<g>
		<g>
			<path fill="#3C3C3C" d="M9.4,2.9H9.1V2.6c0-0.2-0.2-0.4-0.4-0.4H7.6c-0.2,0-0.4,0.2-0.4,0.4v0.2H7.1L6.7,1.3C6.6,1,6.3,0.8,6,0.8
				H4C3.7,0.8,3.4,1,3.3,1.3L2.9,2.9H2.8V2.6c0-0.2-0.2-0.4-0.4-0.4H1.3c-0.2,0-0.4,0.2-0.4,0.4v0.2H0.6C0.3,2.9,0,3.1,0,3.4v5
				C0,8.8,0.3,9,0.6,9h8.8C9.7,9,10,8.8,10,8.5v-5C10,3.1,9.7,2.9,9.4,2.9z M3.9,1.5C4,1.5,4,1.4,3.9,1.5l2-0.1c0,0,0.1,0,0.1,0.1
				l0.4,1.3H3.6L3.9,1.5z M5,8.7c-1.5,0-2.8-1.2-2.8-2.8S3.5,3.2,5,3.2c1.5,0,2.8,1.2,2.8,2.8C7.8,7.5,6.5,8.7,5,8.7z"/>
			<path fill="#3C3C3C" d="M5,4.8c-0.6,0-1.1,0.5-1.1,1.1c0,0.6,0.5,1.1,1.1,1.1c0.6,0,1.1-0.5,1.1-1.1C6.1,5.3,5.6,4.8,5,4.8z"/>
			<path fill="#3C3C3C" d="M5,3.8c-1.2,0-2.2,1-2.2,2.2s1,2.2,2.2,2.2c1.2,0,2.2-1,2.2-2.2C7.2,4.7,6.2,3.8,5,3.8z M5,7.8
				C4,7.8,3.2,7,3.2,5.9S4,4.1,5,4.1c1,0,1.8,0.8,1.8,1.8C6.8,7,6,7.8,5,7.8z"/>
		</g>
	</g>
</g>
</svg>
