<?xml version="1.0" encoding="utf-8"?>
<!-- Generator: Adobe Illustrator 18.0.0, SVG Export Plug-In . SVG Version: 6.00 Build 0)  -->
<!DOCTYPE svg PUBLIC "-//W3C//DTD SVG 1.1//EN" "http://www.w3.org/Graphics/SVG/1.1/DTD/svg11.dtd">
<svg version="1.1" id="Layer_1" xmlns="http://www.w3.org/2000/svg" xmlns:xlink="http://www.w3.org/1999/xlink" x="0px" y="0px"
	 viewBox="0 0 10 10" enable-background="new 0 0 10 10" xml:space="preserve">
<g>
	<path fill="#3C3C3C" d="M5,1.7C2.8,1.7,0.9,3,0,4.9C0,5,0,5,0,5.1C0.9,7,2.8,8.3,5,8.3S9.1,7,10,5.1C10,5,10,5,10,4.9
		C9.1,3,7.2,1.7,5,1.7z M5,7.3c-1.2,0-2.3-1-2.3-2.3c0-1.2,1-2.3,2.3-2.3c1.2,0,2.3,1,2.3,2.3S6.3,7.3,5,7.3z"/>
	<circle fill="#3C3C3C" cx="5" cy="5" r="1.4"/>
</g>
</svg>
