<?xml version="1.0" encoding="utf-8"?>
<!-- Generator: Adobe Illustrator 18.0.0, SVG Export Plug-In . SVG Version: 6.00 Build 0)  -->
<!DOCTYPE svg PUBLIC "-//W3C//DTD SVG 1.1//EN" "http://www.w3.org/Graphics/SVG/1.1/DTD/svg11.dtd">
<svg version="1.1" id="Layer_1" xmlns="http://www.w3.org/2000/svg" xmlns:xlink="http://www.w3.org/1999/xlink" x="0px" y="0px"
	 viewBox="0 0 10 10" enable-background="new 0 0 10 10" xml:space="preserve">
<g>
	<path fill="#3C3C3C" d="M9.8,2H0.2C0.1,2,0,2.1,0,2.2v5.5C0,7.9,0.1,8,0.2,8h9.6C9.9,8,10,7.9,10,7.8V2.2C10,2.1,9.9,2,9.8,2z
		 M1.9,6.8h-1V3.1h1V6.8z M3.9,6.9c-0.5,0-1-0.2-1.4-0.5L3,5.7c0.3,0.2,0.6,0.4,0.9,0.4c0.3,0,0.4-0.1,0.4-0.3
		c0-0.2-0.2-0.2-0.5-0.4L3.4,5.3C3,5.1,2.6,4.8,2.6,4.2c0-0.6,0.6-1.2,1.4-1.2c0.4,0,0.9,0.2,1.2,0.5L4.7,4.2C4.5,4,4.3,3.9,4,3.9
		C3.8,3.9,3.6,4,3.6,4.2c0,0.2,0.2,0.2,0.5,0.4l0.5,0.2c0.5,0.2,0.7,0.5,0.7,1C5.3,6.4,4.8,6.9,3.9,6.9z M7.5,6.9
		c-1,0-1.7-0.7-1.7-1.9c0-1.2,0.7-1.9,1.7-1.9S9.2,3.8,9.2,5C9.2,6.2,8.5,6.9,7.5,6.9z"/>
	<path fill="#3C3C3C" d="M7.5,3.9C7.1,3.9,6.8,4.3,6.8,5s0.3,1.1,0.7,1.1S8.2,5.6,8.2,5S8,3.9,7.5,3.9z"/>
</g>
</svg>
