<?xml version="1.0" encoding="utf-8"?>
<!-- Generator: Adobe Illustrator 18.0.0, SVG Export Plug-In . SVG Version: 6.00 Build 0)  -->
<!DOCTYPE svg PUBLIC "-//W3C//DTD SVG 1.1//EN" "http://www.w3.org/Graphics/SVG/1.1/DTD/svg11.dtd">
<svg version="1.1" id="Layer_1" xmlns="http://www.w3.org/2000/svg" xmlns:xlink="http://www.w3.org/1999/xlink" x="0px" y="0px"
	 viewBox="0 0 10 10" enable-background="new 0 0 10 10" xml:space="preserve">
<g>
	<g>
		<g>
			<path fill="#3C3C3C" d="M7.6,2.6C7.6,1.2,6.5,0,5,0S2.4,1.2,2.4,2.6C2.4,4.7,5,7.8,5,7.8S7.6,4.7,7.6,2.6z M3.7,2.5
				c0-0.7,0.6-1.3,1.3-1.3s1.3,0.6,1.3,1.3S5.7,3.8,5,3.8S3.7,3.2,3.7,2.5z"/>
			<circle fill="#3C3C3C" cx="5" cy="2.5" r="0.6"/>
			<path fill="#3C3C3C" d="M6.5,6.9C6.3,7.2,6.1,7.5,5.9,7.7c1.7,0.1,2.8,0.5,3.2,0.7C8.6,8.7,7.2,9.2,5,9.2c-2.2,0-3.6-0.4-4.1-0.8
				c0.4-0.3,1.5-0.6,3.2-0.7C3.9,7.5,3.7,7.2,3.5,6.9C1.5,7.1,0,7.7,0,8.4C0,9.3,2.2,10,5,10c2.8,0,5-0.7,5-1.6
				C10,7.7,8.5,7.1,6.5,6.9z"/>
		</g>
	</g>
</g>
</svg>
